<svg xmlns="http://www.w3.org/2000/svg" viewBox="0 0 3000 2400" width="3000" height="2400"><g transform="translate(96.0 282.0) rotate(-8.095614227438437 1263.0 177.0) scale(1.3558608777240002 1.3616798667553938)"><svg width="1863.023" height="259.973" viewBox="0 0 1863.023 259.973"><path d="M131.596 23.35C96.03 26.586 65.6 39.156 41.152 60.711 23.791 76.019 9.149 99.066 8.363 121.637c-.807 23.166 6.529 43.802 23.42 60.927 23.278 23.599 58.382 39.093 94.629 48.667 42.449 11.213 86.666 12.808 128.126 12.861 80.628.101 241.494.56 427.762 1.092 333.789.954 749.195 2.145 884.841 1.751 42.312-.12 87.435-1.948 142.002-5.746 33.751-2.35 55.049 2.191 83.64-13.562 26.009-14.334 51.058-49.117 55.365-78.11 2.28-15.342 2.514-28.775.696-39.926-6.46-39.627-30.101-68.099-70.265-84.625-23.565-9.695-48.96-10.021-75.845-10.365-3.968-.052-7.93-.103-11.877-.185-74.99-1.558-151.708-1.541-223.874-1.389-16.339.033-33.088.766-49.283 1.473-16.132.706-32.814 1.433-49.352 1.495-29.031.109-58.53-.185-87.047-.468-30.496-.304-62.024-.619-92.991-.438-207.293 1.191-429.714 2.745-679.974 4.75-19.385.155-39.179.845-58.322 1.513-20.165.702-41.017 1.429-61.623 1.544-51.789.29-104.408.146-155.298.008-24.811-.068-49.624-.134-74.437-.155-.002 0-21.185.068-27.06.601z" fill="#fff"/><path d="M254.521 257.053c-44.165-.056-88.314-1.904-131.42-13.291-35.983-9.505-67.949-25.935-94.376-52.729C-10.801 150.96-9.554 88.14 32.58 50.99c27.83-24.538 61.066-37.202 97.842-40.548 9.358-.851 18.826-.662 28.244-.654 76.551.061 153.103.574 229.651.148 39.976-.223 79.937-2.737 119.914-3.057 226.666-1.815 453.334-3.446 680.003-4.75 60.018-.345 120.045 1.127 180.065.906 32.888-.121 65.768-2.899 98.655-2.968 74.725-.157 149.468-.16 224.17 1.393 30.986.644 62.793-.654 92.385 11.521 42.664 17.553 70.587 48.273 78.126 94.526 2.324 14.257 1.47 29.519-.668 43.915-4.87 32.789-22.199 57.622-51.62 73.836-30.986 17.076-64.464 26.435-99.304 28.861-47.531 3.31-95.231 5.642-142.866 5.778-210.235.599-1085.34-2.557-1312.656-2.844zm1177.612-23.572c106.59.02 213.181-.017 319.771.31 14.642.045 28.138-2.45 40.048-11.05 16.995-12.271 30.647-27.576 39.487-46.691 24.497-52.971-2.431-116.198-57.247-135.37-26.921-9.416-54.847-14.76-83.035-15.002-67.096-.577-134.218.288-201.311 1.535-37.064.689-74.085 4.615-111.139 4.833-99.515.586-199.039.294-298.556-.26-153.108-.852-306.212-2.371-459.32-3.272-50.635-.298-101.282.07-151.914.8-64.742.934-129.473 2.631-194.212 3.827-39.986.739-80.062-.231-119.941 2.166-30.775 1.85-60.071 11.697-86.377 28.454-22.529 14.35-39.595 33.315-46.32 59.988-4.686 18.586-.631 35.212 12.969 48.752 6.192 6.165 13.283 11.766 20.808 16.194 24.485 14.408 50.351 26.433 78.594 30.328 34.918 4.815 70.121 9.505 105.286 10.255 127.147 2.711 254.326 4.374 381.501 5.236 122.484.831 663.095-1.062 810.908-1.033zm248.591-83.637c-12.998 5.572-25.487 8.091-38.52 7.524-36.837-1.603-57.936-41.213-41.066-73.997 13.229-25.709 45.121-38.389 72.429-28.75 17.15 6.054 30.083 16.053 32.441 47.049 1.051 13.812-4.804 27.473-4.804 27.473s33.563 33.774 40.718 42.354c4.368 5.238 7.666 11.497 2.047 17.377-5.438 5.691-12.095 3.439-17.572-.694-7.023-5.301-13.639-11.146-20.374-16.825-8.536-7.197-17.017-14.464-25.299-21.511zm-32.761-10.792c11.122-.275 24.011-5.658 33.804-18.974 12.277-16.694 8.64-38.125-8.192-47.459-15.793-8.757-31.07-5.723-45.078 6.01-12.232 10.246-17.704 25.965-14.288 38.941 3.454 13.116 15.012 21.281 33.754 21.482zm-1398.111.277c-4.967 8.711-2.746 16.972 2.04 24.873 7.453 12.306 25.455 20.412 39.4 17.909 18.117-3.252 26.606-18.99 18.715-35.46-6.676-13.934-18.086-20.979-33.546-21.175-11.403-.159-20.753 3.581-26.609 13.853zm163.493 16.673c.162-15.75-14.832-31.04-31.388-32.008-15.063-.881-29.354 11.513-29.849 25.885-.569 16.523 15.03 32.792 31.977 33.351 13.846.456 29.122-13.759 29.26-27.228zm-214.009-6.589c-4.193-17.451-27.532-30.202-44.58-24.356-18.38 6.303-23.497 23.866-11.482 39.139 8.543 10.86 21.046 11.463 32.228 13.039 16.009.535 27.333-13.258 23.834-27.822z"/></svg></g><g transform="translate(578.0 456.0) rotate(0.0 1152.0 593.0) scale(2.4953861350107873 2.4736780631059054)"><svg width="923.304" height="479.448" viewBox="0 0 923.304 479.448"><g><path d="M616.686 230.76c-.187 58.148 4.182 115.939-16.254 173.105-34.851 97.493-162.915 87.554-210.709 43.449-43.482-40.126-52.309-83.383-49.195-137.229 3.944-68.203 39.581-234.907 102.421-289.928C472.245-5.493 530.33-6.9 561.877 17.299c64.032 49.118 54.808 125.656 54.808 213.461zm-106.218-80.042c-5.374-19.883-20.664-15.122-25.247 1.939-10.891 40.538-9.676 69.009-18.658 146.634-2.89 24.974 4.907 48.679 23.257 49.844 4.572.29 9.228-4.064 13.473-11.861 16.434-30.189 10.093-175.763 7.176-186.556zm-231.67 6.58c-17.857 57.625-16.853 114.618.797 171.804 6.744 21.848 7.609 44.266 4.588 66.624-4.767 35.278-22.745 60.736-57.031 73.845-33.434 12.782-63.866 9.068-87.934-18.056-21.398-24.115-21.006-54.411-15.263-83.933 3.209-16.497 10.306-32.291 16.197-48.199 8.127-21.944-6.487-40.593-31.386-36.973-23.448 3.41-45.727 1.878-68.629-3.884-49.995-12.58-50.709-74.568-16.375-105.627 4.881-4.416 10.529-8.777 17.29-14.893C133.1 74.737 151.552-5.614 220.447 3.521c49.568 6.573 64.87 20.6 69.623 71.86 1.732 18.675-5.455 63.145-11.272 81.917zm-133.505 19.738c-.847 8.979-2.838 21.963 10.333 24.043 12.336 1.948 25.337-16.55 26.829-35.468.708-8.975 3.258-28.358-9.428-26.892-16.708 1.931-25.968 19.607-27.734 38.317zM882.971 14.124c-42.101-13.581-62.473-1.358-78.77 10.865s-76.054 84.203-111.365 120.871c-35.311 36.669-42.101 66.547-23.088 108.648s94.438 14.26 113.452 34.632c19.014 20.371-12.609 56.27-17.655 95.916-7.13 56.022 21 94.898 82.115 88.107s81.876-54.154 69.653-157.37-5.822-141.413 2.327-179.44c8.148-38.027 5.432-108.648-36.669-122.23zm-55.632 145.317c-1.7 11.478-21.73 55.003-40.793 40.743-10.26-7.674-9.457-25.125 6.841-46.855 16.297-21.73 36.669-12.223 33.953 6.111z"/></g></svg></g><g transform="translate(1920.0 1306.0) rotate(0.0 498.0 494.0) scale(3.1995374162771646 3.204889077750998)"><svg width="311.295" height="308.279" viewBox="0 0 311.295 308.279"><g fill="#fff"><path d="M236.186 124.707c9.414 169.748-216.389 149.857-227.431.352-3.884-166.312 209.393-140.627 227.431-.352zM32.529 136.281c23.492 137.564 194.846 86.152 177.042-25.513C189.292-4.783 24.463 26.348 32.529 136.281zm218.29 140.644c-8.086-7.209-40.517-41.017-6.934-40.507 15.225 6.397 76.94 57.144 56.95 65.34-14.791 3.546-38.616-19.064-50.016-24.833z"/><path d="M216.672 214.027c12.707 1.308 25.236 20.076 6.234 25.983-14.853-1.118-24.867-20.231-6.234-25.983z"/><circle cx="126.964" cy="131.997" r="96.556"/></g><path d="M311.295 289.871c-9.695 54.01-97.825-26.084-86.184-45.828-13.56 4.515-20.871-2.29-25.116-14.403C76.138 321.216-64.901 146.021 32.462 39.208 148.304-76.769 308.027 89.923 216.772 210.29c10.409-3.441 25.456 5.246 21.785 18.6 18.537-2.567 69.253 41.681 72.738 60.981zm-75.109-165.164C211.305-26.109 4.568-29.951 8.669 121.949c13.358 164.726 241.355 162.026 227.517 2.758zm14.633 152.218c7.589 4.823 61.765 44.901 52.546 13.723-58.152-80.449-102.599-59.598-52.546-13.723zm-34.147-62.898c-17.811 4.51-9.307 26.336 7.893 25.822 14.727-5.928 7.524-23.419-7.893-25.822z"/><path d="M32.529 136.281C26.179 22.986 190.291-2.394 209.571 110.768c13.752 123.189-159.036 153.764-177.042 25.513zm46.47 61.643c110.946 57.87 168.355-86.55 74.596-143.313C54.509 4.75-.266 141.355 78.999 197.924z"/><path d="M119.081 185.594c-.909-34.386-7.713-70.772-4.53-106.431 14.164-13.059 6.68 26.287 8.762 35.236-1.773 15.214 6.302 65.012-4.232 71.195zm29.494-84.161c-3.625 17.897 3.488 35.885-5.29 43.594-5.877-3.273-11.931-47.524 5.29-43.594zm-48.678 3.416c-2.749 16.873-.521 33.403-2.726 52.217-5.819 17.598-12.167-56.909 2.726-52.217z"/></svg></g><g transform="translate(216.0 1210.0) rotate(0.0 394.0 425.0) scale(0.7369948008196728 0.7458207713717135)"><svg width="1069.207" height="1139.684" viewBox="0 0 1069.207 1139.684"><path d="M104.902 365.192c71.241-309.22 101.996-525.609 404.578-211.659 187.194 197.58 367.219 395.624 529.23 618.237 130.779 145.431-181.318 97.146-512.481 246.388C422.355 1051.781 96.96 1212.518.835 1100.65c-8.413-246.581 48.231-492.028 104.067-735.458zm-60.204 698.385c-29.223 140.324 517.533-119.814 611.56-133.301 413.29-125.143 400.226-74.949 328.013-170.774-178.478-234.586-353.898-463.803-584.204-656.073-202.883-272.143-243.94 138.234-346.898 788.575 5.362 28.52-.981 58.314-4.965 95.228l-5.303-1.414c9.001 20.87 4.604 47.208 1.797 77.759z"/><path d="M44.698 1063.576c.716-22.238 9.353-49.916-1.797-77.759l5.303 1.414c1.848-25.335 11.24-61.888 4.965-95.228 22.895-171.319 54.351-362.876 90.985-545.12 34.363-144.922 73.457-489.848 261.426-239.048 192.435 151.131 474.677 507.347 590.805 667.58 90.093 82.259-68.263 60.508-372.435 165.033-79.887 10.97-606.276 261.644-579.252 123.128z" fill="#fff"/><path d="M269.196 176.504c-7.906-42.993 51.362-67.288 79.081-27.335 38.319 53.926 33.79 118.767 57.778 183.254 47.185 266.174 98.756 372.204 64.174 406.423-51.542 13.417-222-559.253-201.033-562.342zM550.47 822.931c-4.498 61.645-98.439 74.006-104.793 7.988-2.75-69.042 105.368-76.229 104.793-7.988z"/></svg></g></svg>